<svg xmlns="http://www.w3.org/2000/svg" xmlns:xlink="http://www.w3.org/1999/xlink" width="1185" zoomAndPan="magnify" viewBox="135 477 1185 546" height="546" preserveAspectRatio="xMidYMid meet" version="1.0"><defs><g/><clipPath id="56129993bf"><path d="M 290.445312 633.960938 L 546 633.960938 L 546 865.476562 L 290.445312 865.476562 Z M 290.445312 633.960938 " clip-rule="nonzero"/></clipPath><clipPath id="9ce966618d"><path d="M 328.695312 633.960938 L 507.574219 633.960938 C 517.71875 633.960938 527.449219 637.988281 534.621094 645.164062 C 541.796875 652.335938 545.824219 662.066406 545.824219 672.210938 L 545.824219 827.226562 C 545.824219 837.371094 541.796875 847.101562 534.621094 854.273438 C 527.449219 861.445312 517.71875 865.476562 507.574219 865.476562 L 328.695312 865.476562 C 318.550781 865.476562 308.824219 861.445312 301.648438 854.273438 C 294.476562 847.101562 290.445312 837.371094 290.445312 827.226562 L 290.445312 672.210938 C 290.445312 662.066406 294.476562 652.335938 301.648438 645.164062 C 308.824219 637.988281 318.550781 633.960938 328.695312 633.960938 Z M 328.695312 633.960938 " clip-rule="nonzero"/></clipPath><clipPath id="da6c2eee54"><path d="M 0.445312 0.960938 L 256 0.960938 L 256 232.476562 L 0.445312 232.476562 Z M 0.445312 0.960938 " clip-rule="nonzero"/></clipPath><clipPath id="16836865ea"><path d="M 38.695312 0.960938 L 217.574219 0.960938 C 227.71875 0.960938 237.449219 4.988281 244.621094 12.164062 C 251.796875 19.335938 255.824219 29.066406 255.824219 39.210938 L 255.824219 194.226562 C 255.824219 204.371094 251.796875 214.101562 244.621094 221.273438 C 237.449219 228.445312 227.71875 232.476562 217.574219 232.476562 L 38.695312 232.476562 C 28.550781 232.476562 18.824219 228.445312 11.648438 221.273438 C 4.476562 214.101562 0.445312 204.371094 0.445312 194.226562 L 0.445312 39.210938 C 0.445312 29.066406 4.476562 19.335938 11.648438 12.164062 C 18.824219 4.988281 28.550781 0.960938 38.695312 0.960938 Z M 38.695312 0.960938 " clip-rule="nonzero"/></clipPath><clipPath id="896d295b19"><rect x="0" width="256" y="0" height="233"/></clipPath><clipPath id="dc7416d375"><path d="M 306.078125 652.164062 L 530.316406 652.164062 L 530.316406 845.445312 L 306.078125 845.445312 Z M 306.078125 652.164062 " clip-rule="nonzero"/></clipPath><clipPath id="6d7d656354"><path d="M 344.328125 652.164062 L 491.941406 652.164062 C 502.085938 652.164062 511.816406 656.195312 518.988281 663.367188 C 526.164062 670.539062 530.191406 680.269531 530.191406 690.414062 L 530.191406 807.195312 C 530.191406 817.339844 526.164062 827.070312 518.988281 834.242188 C 511.816406 841.417969 502.085938 845.445312 491.941406 845.445312 L 344.328125 845.445312 C 334.183594 845.445312 324.457031 841.417969 317.28125 834.242188 C 310.109375 827.070312 306.078125 817.339844 306.078125 807.195312 L 306.078125 690.414062 C 306.078125 680.269531 310.109375 670.539062 317.28125 663.367188 C 324.457031 656.195312 334.183594 652.164062 344.328125 652.164062 Z M 344.328125 652.164062 " clip-rule="nonzero"/></clipPath><clipPath id="f729fe7736"><path d="M 0.078125 0.164062 L 224.316406 0.164062 L 224.316406 193.445312 L 0.078125 193.445312 Z M 0.078125 0.164062 " clip-rule="nonzero"/></clipPath><clipPath id="51b6ecac47"><path d="M 38.328125 0.164062 L 185.941406 0.164062 C 196.085938 0.164062 205.816406 4.195312 212.988281 11.367188 C 220.164062 18.539062 224.191406 28.269531 224.191406 38.414062 L 224.191406 155.195312 C 224.191406 165.339844 220.164062 175.070312 212.988281 182.242188 C 205.816406 189.417969 196.085938 193.445312 185.941406 193.445312 L 38.328125 193.445312 C 28.183594 193.445312 18.457031 189.417969 11.28125 182.242188 C 4.109375 175.070312 0.078125 165.339844 0.078125 155.195312 L 0.078125 38.414062 C 0.078125 28.269531 4.109375 18.539062 11.28125 11.367188 C 18.457031 4.195312 28.183594 0.164062 38.328125 0.164062 Z M 38.328125 0.164062 " clip-rule="nonzero"/></clipPath><clipPath id="90da4646ad"><rect x="0" width="225" y="0" height="194"/></clipPath><clipPath id="1c2426d34b"><path d="M 307.652344 661.128906 L 525.96875 661.128906 L 525.96875 838.621094 L 307.652344 838.621094 Z M 307.652344 661.128906 " clip-rule="nonzero"/></clipPath><clipPath id="db642f9459"><path d="M 386.710938 662.234375 C 386.570312 662.863281 386.921875 663.496094 387.53125 663.707031 L 391.667969 665.136719 C 393.03125 665.609375 395.710938 666.9375 396.9375 667.753906 L 398.183594 668.582031 C 398.824219 669.003906 399.90625 669.992188 400.402344 670.605469 L 402.160156 672.765625 C 403.089844 673.90625 404.398438 676.199219 404.929688 677.613281 L 406.308594 681.269531 C 406.375 681.449219 406.367188 681.652344 406.289062 681.828125 L 406.164062 682.105469 C 406.019531 682.429688 405.722656 682.792969 405.445312 682.992188 L 401.441406 685.859375 C 399.21875 687.449219 396.28125 690.699219 394.84375 693.160156 L 393.394531 695.636719 C 392.636719 696.933594 391.640625 699.472656 391.300781 700.96875 L 390.878906 702.851562 C 390.667969 703.78125 390.453125 705.714844 390.453125 706.671875 L 390.453125 708.1875 C 390.453125 708.933594 390.621094 710.445312 390.785156 711.171875 L 391.199219 713.011719 C 391.34375 713.648438 391.34375 714.585938 391.199219 715.222656 L 391.074219 715.773438 C 391.050781 715.875 390.972656 715.957031 390.867188 715.980469 C 390.765625 716.007812 390.65625 715.972656 390.589844 715.890625 L 388.082031 712.859375 C 386.578125 711.046875 385.039062 707.9375 384.464844 705.5625 L 383.96875 703.492188 C 383.714844 702.433594 382.972656 700.527344 382.453125 699.597656 L 380.964844 696.921875 C 380.226562 695.589844 378.449219 693.152344 377.429688 692.070312 L 369.234375 683.363281 C 367.929688 681.980469 365.765625 680.65625 364.015625 680.171875 L 361.605469 679.503906 C 361.269531 679.414062 360.917969 679.578125 360.773438 679.894531 C 360.710938 680.03125 360.714844 680.1875 360.78125 680.324219 C 360.84375 680.457031 360.964844 680.558594 361.113281 680.59375 L 363.636719 681.214844 C 364.460938 681.414062 365.414062 681.996094 366.011719 682.65625 L 366.507812 683.207031 C 366.785156 683.511719 367.125 684.085938 367.269531 684.484375 L 367.636719 685.5 C 367.820312 686.007812 368.300781 686.964844 368.589844 687.402344 L 371.042969 691.101562 C 372.390625 693.136719 373.90625 696.808594 374.410156 699.269531 L 375.441406 704.292969 C 375.703125 705.550781 376.511719 708.246094 376.984375 709.425781 L 377.484375 710.667969 C 377.757812 711.347656 378.386719 712.328125 378.878906 712.839844 L 393.523438 728.03125 C 393.777344 728.296875 393.84375 728.6875 393.695312 729.019531 C 393.636719 729.148438 393.519531 729.246094 393.378906 729.277344 C 393.238281 729.308594 393.09375 729.269531 392.984375 729.179688 L 387.957031 724.878906 C 385.519531 722.796875 379.175781 717.976562 376.542969 716.207031 L 372.523438 713.503906 C 370.730469 712.300781 366.136719 709.613281 364.222656 708.652344 L 358.132812 705.589844 C 355.285156 704.15625 348.597656 701.542969 345.566406 700.675781 L 339.464844 698.933594 C 337.550781 698.386719 335.570312 698.109375 333.582031 698.109375 L 327.742188 698.109375 C 325.90625 698.109375 322.386719 698.65625 320.621094 699.214844 L 318.875 699.765625 C 317.988281 700.046875 316.367188 700.84375 315.589844 701.382812 L 314.363281 702.230469 C 313.734375 702.664062 312.671875 703.664062 312.1875 704.28125 L 310.914062 705.886719 C 310.234375 706.75 309.339844 708.421875 308.988281 709.5 L 308.320312 711.53125 C 307.964844 712.609375 307.652344 714.582031 307.652344 715.726562 L 307.652344 719.339844 C 307.652344 721.242188 308.164062 724.558594 308.738281 726.351562 L 309.691406 729.34375 C 310.207031 730.960938 311.507812 733.425781 312.53125 734.71875 L 315.078125 737.941406 C 316.421875 739.640625 319.21875 742.15625 321 743.261719 L 323.304688 744.695312 C 324.472656 745.421875 326.875 746.460938 328.179688 746.800781 L 331.183594 747.582031 C 332.894531 748.027344 334.085938 749.570312 334.085938 751.339844 L 334.085938 755.683594 C 334.085938 756.488281 334.316406 757.800781 334.585938 758.550781 L 334.835938 759.238281 C 334.964844 759.59375 335.289062 760.210938 335.503906 760.507812 L 336.292969 761.597656 C 336.730469 762.207031 337.578125 762.964844 338.207031 763.3125 L 340.136719 764.382812 C 341.199219 764.96875 343.035156 765.507812 344.222656 765.582031 L 347.632812 765.789062 C 349.339844 765.894531 352.71875 765.613281 354.390625 765.230469 L 358.703125 764.234375 C 360.707031 763.773438 365.21875 762.296875 367.125 761.480469 L 372.804688 759.050781 C 375.414062 757.929688 381.332031 754.800781 383.757812 753.257812 L 394.242188 746.574219 C 394.382812 746.484375 394.558594 746.480469 394.707031 746.558594 C 394.851562 746.640625 394.941406 746.792969 394.941406 746.957031 C 394.941406 747.488281 394.730469 747.996094 394.359375 748.375 L 392.199219 750.546875 C 390.925781 751.824219 387.785156 754.5 386.339844 755.535156 L 383.660156 757.457031 C 382.46875 758.308594 379.382812 760.257812 378.117188 760.960938 L 372.472656 764.082031 C 370.664062 765.082031 367.691406 767.453125 366.261719 769.035156 L 364.546875 770.933594 C 364.035156 771.496094 363.136719 772.769531 362.769531 773.453125 L 362.394531 774.140625 C 362.207031 774.488281 361.757812 775.105469 361.492188 775.382812 L 355.15625 782.003906 C 354.089844 783.121094 352.300781 785.582031 351.546875 786.976562 L 350.796875 788.355469 C 350.394531 789.097656 349.9375 790.464844 349.808594 791.320312 L 349.660156 792.308594 C 349.632812 792.492188 349.6875 792.679688 349.808594 792.824219 C 349.933594 792.964844 350.109375 793.046875 350.296875 793.046875 C 350.730469 793.046875 351.09375 792.730469 351.15625 792.308594 L 351.339844 791.097656 C 351.457031 790.316406 351.863281 789.261719 352.292969 788.632812 L 352.667969 788.078125 C 352.875 787.773438 353.285156 787.378906 353.585938 787.191406 L 366.132812 779.523438 C 369.105469 777.703125 374.332031 773.351562 376.734375 770.691406 L 379.105469 768.070312 C 380.222656 766.835938 382.933594 764.339844 384.234375 763.347656 L 388.554688 760.0625 C 388.75 759.914062 389.011719 759.875 389.242188 759.957031 C 389.476562 760.042969 389.648438 760.238281 389.703125 760.480469 L 389.78125 760.820312 C 389.890625 761.3125 389.820312 761.832031 389.578125 762.273438 L 389.207031 762.964844 C 388.828125 763.660156 388.265625 765.113281 388.074219 765.898438 L 387.515625 768.15625 C 387.183594 769.503906 386.332031 771.058594 385.40625 772.003906 L 382.203125 775.273438 C 381.335938 776.160156 379.855469 778.140625 379.230469 779.246094 L 378.605469 780.351562 C 378.300781 780.894531 377.792969 782.082031 377.609375 782.691406 L 376.796875 785.382812 C 376.375 786.789062 375.988281 789.4375 375.988281 790.917969 L 375.988281 798.195312 C 375.988281 799.992188 375.601562 803.71875 375.238281 805.464844 L 374.847656 807.332031 C 374.648438 808.300781 374.054688 809.65625 373.492188 810.433594 L 372.992188 811.121094 C 372.679688 811.558594 372.207031 811.875 371.710938 811.984375 L 370.59375 812.234375 C 370.21875 812.316406 369.910156 812.570312 369.75 812.917969 L 369.667969 813.105469 C 369.625 813.199219 369.621094 813.308594 369.664062 813.402344 C 369.703125 813.496094 369.78125 813.570312 369.875 813.605469 L 370.25 813.746094 C 370.726562 813.917969 371.265625 813.902344 371.730469 813.695312 L 372.613281 813.308594 C 373.113281 813.085938 373.765625 812.578125 374.125 812.132812 L 375.804688 810.039062 C 376.699219 808.925781 377.910156 806.730469 378.398438 805.339844 L 379.6875 801.675781 C 380.359375 799.769531 381.058594 796.132812 381.152344 794.089844 L 381.316406 790.429688 C 381.40625 788.480469 382.125 785.652344 382.96875 783.9375 L 383.71875 782.421875 C 383.800781 782.257812 383.984375 782.171875 384.160156 782.210938 C 384.339844 782.253906 384.464844 782.414062 384.464844 782.597656 L 384.464844 785.042969 C 384.464844 786.902344 384.722656 791.445312 384.929688 793.289062 L 385.445312 797.859375 C 385.695312 800.0625 386.675781 804.679688 387.335938 806.777344 L 388.394531 810.121094 C 388.90625 811.734375 390.320312 815.035156 391.125 816.492188 L 393.035156 819.949219 C 394.011719 821.722656 396.277344 824.707031 397.683594 826.082031 L 400.554688 828.882812 C 401.933594 830.230469 405.148438 832.757812 406.753906 833.757812 L 409.542969 835.496094 C 410.398438 836.027344 412.480469 837.097656 413.398438 837.480469 L 414.394531 837.894531 C 414.925781 838.113281 415.890625 838.308594 416.457031 838.308594 L 417.171875 838.308594 C 417.566406 838.308594 418.175781 838.164062 418.539062 837.984375 L 424.398438 835.105469 C 425.550781 834.539062 428.0625 833.007812 429.109375 832.234375 L 430.230469 831.40625 C 430.753906 831.023438 431.882812 830.03125 432.339844 829.5625 L 435.589844 826.207031 C 437.222656 824.515625 439.988281 820.769531 441.152344 818.65625 L 442.738281 815.785156 C 443.5 814.40625 444.847656 811.269531 445.335938 809.746094 L 446.324219 806.640625 C 446.789062 805.1875 447.578125 801.804688 447.804688 800.285156 L 448.308594 796.941406 C 448.53125 795.453125 448.898438 791.722656 448.964844 790.214844 L 449.296875 782.84375 C 449.300781 782.78125 449.335938 782.726562 449.386719 782.699219 C 449.441406 782.667969 449.507812 782.667969 449.558594 782.699219 L 449.808594 782.835938 C 450.117188 783.007812 450.402344 783.320312 450.558594 783.664062 L 451.183594 785.042969 C 451.519531 785.789062 451.859375 787.128906 451.921875 787.960938 L 452.515625 795.839844 C 452.660156 797.785156 453.417969 801.433594 454.050781 803.257812 L 454.671875 805.050781 C 454.996094 805.976562 455.820312 807.570312 456.382812 808.347656 L 458.242188 810.917969 C 458.824219 811.726562 459.949219 812.730469 460.785156 813.191406 L 461.582031 813.632812 C 462.023438 813.878906 462.554688 813.921875 463.027344 813.746094 C 463.183594 813.6875 463.296875 813.550781 463.328125 813.386719 C 463.355469 813.222656 463.296875 813.058594 463.171875 812.949219 L 460.96875 811.054688 C 459.96875 810.191406 458.984375 808.710938 458.539062 807.398438 L 458.164062 806.292969 C 457.964844 805.703125 457.789062 804.640625 457.789062 804.011719 L 457.789062 795.390625 C 457.789062 793.140625 457.285156 788.605469 456.792969 786.421875 L 456.292969 784.214844 C 456.035156 783.0625 455.265625 781.089844 454.691406 780.085938 L 453.496094 778.011719 C 452.902344 776.972656 451.484375 775.105469 450.664062 774.273438 L 448.492188 772.070312 C 447.179688 770.738281 446.035156 768.609375 445.601562 766.699219 L 445.175781 764.800781 C 444.992188 764.003906 444.457031 762.566406 444.074219 761.859375 L 443.699219 761.171875 C 443.460938 760.730469 443.40625 760.210938 443.550781 759.730469 L 443.574219 759.652344 C 443.628906 759.46875 443.773438 759.324219 443.960938 759.265625 C 444.144531 759.210938 444.34375 759.25 444.496094 759.371094 L 447.566406 761.859375 C 449.285156 763.257812 453.078125 766.859375 454.585938 768.527344 L 457.933594 772.230469 C 459.652344 774.132812 463.320312 777.125 465.46875 778.382812 L 477.992188 785.695312 C 478.632812 786.070312 479.726562 786.960938 480.238281 787.527344 L 480.734375 788.078125 C 481.03125 788.40625 481.304688 788.941406 481.40625 789.386719 L 482.054688 792.269531 C 482.167969 792.753906 482.515625 793.152344 482.980469 793.324219 C 483.140625 793.382812 483.320312 793.351562 483.453125 793.25 C 483.589844 793.144531 483.660156 792.976562 483.640625 792.804688 L 483.480469 791.390625 C 483.339844 790.15625 482.761719 788.351562 482.164062 787.296875 L 481.449219 786.03125 C 481.09375 785.402344 480.242188 784.253906 479.753906 783.746094 L 473.566406 777.300781 C 472.925781 776.632812 471.746094 775.085938 471.257812 774.28125 L 470.757812 773.453125 C 470.523438 773.058594 469.929688 772.257812 469.625 771.921875 L 465.570312 767.433594 C 464.320312 766.050781 461.914062 764.269531 460.285156 763.515625 L 458.789062 762.828125 C 458.109375 762.511719 456.53125 761.636719 455.898438 761.222656 L 447.464844 755.695312 C 445.660156 754.507812 442.316406 751.636719 440.832031 749.992188 L 438.375 747.273438 C 438.253906 747.140625 438.207031 746.957031 438.25 746.785156 C 438.292969 746.609375 438.417969 746.46875 438.585938 746.40625 C 439.050781 746.234375 439.570312 746.320312 439.953125 746.632812 L 443.074219 749.167969 C 444.820312 750.582031 449.035156 753.429688 450.964844 754.496094 L 453.878906 756.109375 C 455.171875 756.824219 458.496094 758.417969 459.847656 758.972656 L 465.054688 761.105469 C 467.441406 762.085938 473.203125 763.917969 475.695312 764.492188 L 478.964844 765.246094 C 480.597656 765.625 483.898438 765.898438 485.566406 765.796875 L 489.3125 765.566406 C 490.320312 765.503906 492.03125 765.058594 492.957031 764.621094 L 493.828125 764.207031 C 494.300781 763.984375 495.011719 763.453125 495.375 763.050781 L 496.535156 761.765625 C 497.140625 761.097656 498.046875 759.703125 498.429688 758.855469 L 498.808594 758.011719 C 499.027344 757.535156 499.191406 756.761719 499.191406 756.226562 L 499.191406 749.554688 C 499.191406 748.535156 499.933594 747.667969 500.9375 747.511719 L 502.683594 747.234375 C 504.464844 746.953125 507.742188 745.882812 509.378906 745.046875 L 511.019531 744.207031 C 511.851562 743.78125 513.328125 742.722656 514.019531 742.054688 L 518.453125 737.761719 C 519.585938 736.664062 521.363281 734.3125 522.136719 732.882812 L 522.886719 731.503906 C 523.246094 730.835938 523.871094 729.335938 524.09375 728.597656 L 524.859375 726.046875 C 525.261719 724.71875 525.628906 722.214844 525.628906 720.8125 L 525.628906 715.796875 C 525.628906 713.941406 525.074219 711.113281 524.382812 709.425781 L 523.757812 707.90625 C 523.425781 707.097656 522.636719 705.839844 522.070312 705.210938 L 520.855469 703.867188 C 520.246094 703.195312 518.898438 702.054688 518.152344 701.585938 L 517.152344 700.949219 C 516.667969 700.644531 515.582031 700.125 515.050781 699.941406 L 512.359375 699.027344 C 510.578125 698.421875 508.703125 698.144531 506.824219 698.207031 L 500.175781 698.4375 C 496.988281 698.546875 490.542969 699.640625 487.46875 700.59375 L 484.351562 701.558594 C 482.945312 701.996094 479.601562 703.300781 478.257812 703.9375 L 474.507812 705.714844 C 472.863281 706.496094 468.757812 708.714844 467.1875 709.675781 L 461.742188 713 C 459.320312 714.476562 453.472656 718.535156 451.21875 720.304688 L 444.949219 725.214844 C 444.5625 725.523438 444.039062 725.605469 443.574219 725.433594 C 443.414062 725.371094 443.292969 725.234375 443.257812 725.066406 C 443.21875 724.894531 443.273438 724.71875 443.398438 724.597656 L 448.648438 719.472656 C 449.878906 718.269531 452.511719 715.246094 453.550781 713.839844 L 454.671875 712.324219 C 455.25 711.539062 456.113281 709.921875 456.453125 708.984375 L 457.121094 707.136719 C 457.433594 706.277344 458 704.242188 458.179688 703.339844 L 458.984375 699.347656 C 459.40625 697.242188 460.707031 693.703125 461.734375 691.871094 L 465.527344 685.085938 C 465.890625 684.4375 466.78125 683.195312 467.269531 682.65625 L 467.765625 682.105469 C 468.078125 681.757812 468.527344 681.519531 468.96875 681.464844 L 472.207031 681.066406 C 472.519531 681.027344 472.753906 680.761719 472.753906 680.449219 C 472.753906 680.117188 472.546875 679.820312 472.238281 679.703125 L 472.007812 679.621094 C 471.523438 679.441406 470.992188 679.433594 470.5 679.59375 L 468.765625 680.171875 C 467.339844 680.644531 465.460938 681.855469 464.390625 682.992188 L 457.25 690.546875 C 456.097656 691.765625 453.738281 694.753906 452.804688 696.179688 L 451.804688 697.695312 C 451.28125 698.496094 450.578125 700.066406 450.320312 701.011719 L 448.726562 706.890625 C 448.199219 708.832031 446.867188 711.300781 445.570312 712.738281 L 443.859375 714.628906 C 443.539062 714.988281 443.027344 715.113281 442.578125 714.945312 C 442.152344 714.789062 441.914062 714.335938 442.027344 713.898438 L 442.328125 712.738281 C 442.582031 711.757812 442.828125 709.8125 442.828125 708.796875 L 442.828125 706.488281 C 442.828125 705.347656 442.570312 703.050781 442.320312 701.945312 L 441.824219 699.75 C 441.585938 698.6875 440.859375 696.515625 440.417969 695.535156 L 439.875 694.339844 C 439.601562 693.734375 438.933594 692.652344 438.523438 692.152344 L 436.433594 689.613281 C 435.367188 688.3125 433.046875 686.207031 431.6875 685.304688 L 428.195312 682.988281 C 427.410156 682.464844 427.070312 681.480469 427.363281 680.585938 L 427.863281 679.066406 C 428.386719 677.46875 429.734375 674.847656 430.707031 673.53125 L 432.027344 671.746094 C 432.714844 670.816406 434.195312 669.367188 435.109375 668.722656 L 436.972656 667.410156 C 437.90625 666.753906 439.890625 665.734375 440.945312 665.367188 L 446.246094 663.535156 C 446.609375 663.410156 446.90625 663.136719 447.066406 662.785156 C 447.21875 662.449219 447.15625 662.058594 446.910156 661.785156 L 446.816406 661.679688 C 446.511719 661.34375 446.042969 661.21875 445.609375 661.355469 L 442.828125 662.234375 C 441.105469 662.777344 437.734375 664.347656 436.183594 665.332031 L 434.265625 666.542969 C 433.269531 667.171875 431.644531 668.625 430.875 669.566406 L 429.371094 671.417969 C 428.566406 672.40625 427.472656 674.355469 427.027344 675.585938 L 425.890625 678.730469 C 425.300781 680.359375 423.621094 681.320312 421.917969 681.007812 L 421.835938 680.992188 C 419.878906 680.632812 417.878906 680.558594 415.902344 680.777344 L 409.277344 681.511719 C 409.046875 681.535156 408.816406 681.449219 408.660156 681.277344 L 408.410156 681 C 408.125 680.6875 407.8125 680.128906 407.6875 679.707031 L 406.800781 676.765625 C 406.3125 675.140625 405.074219 672.800781 404.03125 671.53125 L 402.480469 669.640625 C 401.675781 668.660156 399.964844 667.144531 398.925781 666.488281 L 396.433594 664.910156 C 395.207031 664.136719 392.542969 662.894531 391.1875 662.464844 L 388.039062 661.46875 C 387.761719 661.382812 387.460938 661.414062 387.207031 661.558594 C 386.957031 661.707031 386.773438 661.949219 386.710938 662.234375 Z M 386.710938 662.234375 " clip-rule="nonzero"/></clipPath><clipPath id="14e2255202"><path d="M 0.652344 0.199219 L 218.839844 0.199219 L 218.839844 177.320312 L 0.652344 177.320312 Z M 0.652344 0.199219 " clip-rule="nonzero"/></clipPath><clipPath id="3f5961a1d9"><path d="M 79.710938 1.234375 C 79.570312 1.863281 79.921875 2.496094 80.53125 2.707031 L 84.667969 4.136719 C 86.03125 4.609375 88.710938 5.9375 89.9375 6.753906 L 91.183594 7.582031 C 91.824219 8.003906 92.90625 8.992188 93.402344 9.605469 L 95.160156 11.765625 C 96.089844 12.90625 97.398438 15.199219 97.929688 16.613281 L 99.308594 20.269531 C 99.375 20.449219 99.367188 20.652344 99.289062 20.828125 L 99.164062 21.105469 C 99.019531 21.429688 98.722656 21.792969 98.445312 21.992188 L 94.441406 24.859375 C 92.21875 26.449219 89.28125 29.699219 87.84375 32.160156 L 86.394531 34.636719 C 85.636719 35.933594 84.640625 38.472656 84.300781 39.96875 L 83.878906 41.851562 C 83.667969 42.78125 83.453125 44.714844 83.453125 45.671875 L 83.453125 47.1875 C 83.453125 47.933594 83.621094 49.445312 83.785156 50.171875 L 84.199219 52.011719 C 84.34375 52.648438 84.34375 53.585938 84.199219 54.222656 L 84.074219 54.773438 C 84.050781 54.875 83.972656 54.957031 83.867188 54.980469 C 83.765625 55.007812 83.65625 54.972656 83.589844 54.890625 L 81.082031 51.859375 C 79.578125 50.046875 78.039062 46.9375 77.464844 44.5625 L 76.96875 42.492188 C 76.714844 41.433594 75.972656 39.527344 75.453125 38.597656 L 73.964844 35.921875 C 73.226562 34.589844 71.449219 32.152344 70.429688 31.070312 L 62.234375 22.363281 C 60.929688 20.980469 58.765625 19.65625 57.015625 19.171875 L 54.605469 18.503906 C 54.269531 18.414062 53.917969 18.578125 53.773438 18.894531 C 53.710938 19.03125 53.714844 19.1875 53.78125 19.324219 C 53.84375 19.457031 53.964844 19.558594 54.113281 19.59375 L 56.636719 20.214844 C 57.460938 20.414062 58.414062 20.996094 59.011719 21.65625 L 59.507812 22.207031 C 59.785156 22.511719 60.125 23.085938 60.269531 23.484375 L 60.636719 24.5 C 60.820312 25.007812 61.300781 25.964844 61.589844 26.402344 L 64.042969 30.101562 C 65.390625 32.136719 66.90625 35.808594 67.410156 38.269531 L 68.441406 43.292969 C 68.703125 44.550781 69.511719 47.246094 69.984375 48.425781 L 70.484375 49.667969 C 70.757812 50.347656 71.386719 51.328125 71.878906 51.839844 L 86.523438 67.03125 C 86.777344 67.296875 86.84375 67.6875 86.695312 68.019531 C 86.636719 68.148438 86.519531 68.246094 86.378906 68.277344 C 86.238281 68.308594 86.09375 68.269531 85.984375 68.179688 L 80.957031 63.878906 C 78.519531 61.796875 72.175781 56.976562 69.542969 55.207031 L 65.523438 52.503906 C 63.730469 51.300781 59.136719 48.613281 57.222656 47.652344 L 51.132812 44.589844 C 48.285156 43.15625 41.597656 40.542969 38.566406 39.675781 L 32.464844 37.933594 C 30.550781 37.386719 28.570312 37.109375 26.582031 37.109375 L 20.742188 37.109375 C 18.90625 37.109375 15.386719 37.65625 13.621094 38.214844 L 11.875 38.765625 C 10.988281 39.046875 9.367188 39.84375 8.589844 40.382812 L 7.363281 41.230469 C 6.734375 41.664062 5.671875 42.664062 5.1875 43.28125 L 3.914062 44.886719 C 3.234375 45.75 2.339844 47.421875 1.988281 48.5 L 1.320312 50.53125 C 0.964844 51.609375 0.652344 53.582031 0.652344 54.726562 L 0.652344 58.339844 C 0.652344 60.242188 1.164062 63.558594 1.738281 65.351562 L 2.691406 68.34375 C 3.207031 69.960938 4.507812 72.425781 5.53125 73.71875 L 8.078125 76.941406 C 9.421875 78.640625 12.21875 81.15625 14 82.261719 L 16.304688 83.695312 C 17.472656 84.421875 19.875 85.460938 21.179688 85.800781 L 24.183594 86.582031 C 25.894531 87.027344 27.085938 88.570312 27.085938 90.339844 L 27.085938 94.683594 C 27.085938 95.488281 27.316406 96.800781 27.585938 97.550781 L 27.835938 98.238281 C 27.964844 98.59375 28.289062 99.210938 28.503906 99.507812 L 29.292969 100.597656 C 29.730469 101.207031 30.578125 101.964844 31.207031 102.3125 L 33.136719 103.382812 C 34.199219 103.96875 36.035156 104.507812 37.222656 104.582031 L 40.632812 104.789062 C 42.339844 104.894531 45.71875 104.613281 47.390625 104.230469 L 51.703125 103.234375 C 53.707031 102.773438 58.21875 101.296875 60.125 100.480469 L 65.804688 98.050781 C 68.414062 96.929688 74.332031 93.800781 76.757812 92.257812 L 87.242188 85.574219 C 87.382812 85.484375 87.558594 85.480469 87.707031 85.558594 C 87.851562 85.640625 87.941406 85.792969 87.941406 85.957031 C 87.941406 86.488281 87.730469 86.996094 87.359375 87.375 L 85.199219 89.546875 C 83.925781 90.824219 80.785156 93.5 79.339844 94.535156 L 76.660156 96.457031 C 75.46875 97.308594 72.382812 99.257812 71.117188 99.960938 L 65.472656 103.082031 C 63.664062 104.082031 60.691406 106.453125 59.261719 108.035156 L 57.546875 109.933594 C 57.035156 110.496094 56.136719 111.769531 55.769531 112.453125 L 55.394531 113.140625 C 55.207031 113.488281 54.757812 114.105469 54.492188 114.382812 L 48.15625 121.003906 C 47.089844 122.121094 45.300781 124.582031 44.546875 125.976562 L 43.796875 127.355469 C 43.394531 128.097656 42.9375 129.464844 42.808594 130.320312 L 42.660156 131.308594 C 42.632812 131.492188 42.6875 131.679688 42.808594 131.824219 C 42.933594 131.964844 43.109375 132.046875 43.296875 132.046875 C 43.730469 132.046875 44.09375 131.730469 44.15625 131.308594 L 44.339844 130.097656 C 44.457031 129.316406 44.863281 128.261719 45.292969 127.632812 L 45.667969 127.078125 C 45.875 126.773438 46.285156 126.378906 46.585938 126.191406 L 59.132812 118.523438 C 62.105469 116.703125 67.332031 112.351562 69.734375 109.691406 L 72.105469 107.070312 C 73.222656 105.835938 75.933594 103.339844 77.234375 102.347656 L 81.554688 99.0625 C 81.75 98.914062 82.011719 98.875 82.242188 98.957031 C 82.476562 99.042969 82.648438 99.238281 82.703125 99.480469 L 82.78125 99.820312 C 82.890625 100.3125 82.820312 100.832031 82.578125 101.273438 L 82.207031 101.964844 C 81.828125 102.660156 81.265625 104.113281 81.074219 104.898438 L 80.515625 107.15625 C 80.183594 108.503906 79.332031 110.058594 78.40625 111.003906 L 75.203125 114.273438 C 74.335938 115.160156 72.855469 117.140625 72.230469 118.246094 L 71.605469 119.351562 C 71.300781 119.894531 70.792969 121.082031 70.609375 121.691406 L 69.796875 124.382812 C 69.375 125.789062 68.988281 128.4375 68.988281 129.917969 L 68.988281 137.195312 C 68.988281 138.992188 68.601562 142.71875 68.238281 144.464844 L 67.847656 146.332031 C 67.648438 147.300781 67.054688 148.65625 66.492188 149.433594 L 65.992188 150.121094 C 65.679688 150.558594 65.207031 150.875 64.710938 150.984375 L 63.59375 151.234375 C 63.21875 151.316406 62.910156 151.570312 62.75 151.917969 L 62.667969 152.105469 C 62.625 152.199219 62.621094 152.308594 62.664062 152.402344 C 62.703125 152.496094 62.78125 152.570312 62.875 152.605469 L 63.25 152.746094 C 63.726562 152.917969 64.265625 152.902344 64.730469 152.695312 L 65.613281 152.308594 C 66.113281 152.085938 66.765625 151.578125 67.125 151.132812 L 68.804688 149.039062 C 69.699219 147.925781 70.910156 145.730469 71.398438 144.339844 L 72.6875 140.675781 C 73.359375 138.769531 74.058594 135.132812 74.152344 133.089844 L 74.316406 129.429688 C 74.40625 127.480469 75.125 124.652344 75.96875 122.9375 L 76.71875 121.421875 C 76.800781 121.257812 76.984375 121.171875 77.160156 121.210938 C 77.339844 121.253906 77.464844 121.414062 77.464844 121.597656 L 77.464844 124.042969 C 77.464844 125.902344 77.722656 130.445312 77.929688 132.289062 L 78.445312 136.859375 C 78.695312 139.0625 79.675781 143.679688 80.335938 145.777344 L 81.394531 149.121094 C 81.90625 150.734375 83.320312 154.035156 84.125 155.492188 L 86.035156 158.949219 C 87.011719 160.722656 89.277344 163.707031 90.683594 165.082031 L 93.554688 167.882812 C 94.933594 169.230469 98.148438 171.757812 99.753906 172.757812 L 102.542969 174.496094 C 103.398438 175.027344 105.480469 176.097656 106.398438 176.480469 L 107.394531 176.894531 C 107.925781 177.113281 108.890625 177.308594 109.457031 177.308594 L 110.171875 177.308594 C 110.566406 177.308594 111.175781 177.164062 111.539062 176.984375 L 117.398438 174.105469 C 118.550781 173.539062 121.0625 172.007812 122.109375 171.234375 L 123.230469 170.40625 C 123.753906 170.023438 124.882812 169.03125 125.339844 168.5625 L 128.589844 165.207031 C 130.222656 163.515625 132.988281 159.769531 134.152344 157.65625 L 135.738281 154.785156 C 136.5 153.40625 137.847656 150.269531 138.335938 148.746094 L 139.324219 145.640625 C 139.789062 144.1875 140.578125 140.804688 140.804688 139.285156 L 141.308594 135.941406 C 141.53125 134.453125 141.898438 130.722656 141.964844 129.214844 L 142.296875 121.84375 C 142.300781 121.78125 142.335938 121.726562 142.386719 121.699219 C 142.441406 121.667969 142.507812 121.667969 142.558594 121.699219 L 142.808594 121.835938 C 143.117188 122.007812 143.402344 122.320312 143.558594 122.664062 L 144.183594 124.042969 C 144.519531 124.789062 144.859375 126.128906 144.921875 126.960938 L 145.515625 134.839844 C 145.660156 136.785156 146.417969 140.433594 147.050781 142.257812 L 147.671875 144.050781 C 147.996094 144.976562 148.820312 146.570312 149.382812 147.347656 L 151.242188 149.917969 C 151.824219 150.726562 152.949219 151.730469 153.785156 152.191406 L 154.582031 152.632812 C 155.023438 152.878906 155.554688 152.921875 156.027344 152.746094 C 156.183594 152.6875 156.296875 152.550781 156.328125 152.386719 C 156.355469 152.222656 156.296875 152.058594 156.171875 151.949219 L 153.96875 150.054688 C 152.96875 149.191406 151.984375 147.710938 151.539062 146.398438 L 151.164062 145.292969 C 150.964844 144.703125 150.789062 143.640625 150.789062 143.011719 L 150.789062 134.390625 C 150.789062 132.140625 150.285156 127.605469 149.792969 125.421875 L 149.292969 123.214844 C 149.035156 122.0625 148.265625 120.089844 147.691406 119.085938 L 146.496094 117.011719 C 145.902344 115.972656 144.484375 114.105469 143.664062 113.273438 L 141.492188 111.070312 C 140.179688 109.738281 139.035156 107.609375 138.601562 105.699219 L 138.175781 103.800781 C 137.992188 103.003906 137.457031 101.566406 137.074219 100.859375 L 136.699219 100.171875 C 136.460938 99.730469 136.40625 99.210938 136.550781 98.730469 L 136.574219 98.652344 C 136.628906 98.46875 136.773438 98.324219 136.960938 98.265625 C 137.144531 98.210938 137.34375 98.25 137.496094 98.371094 L 140.566406 100.859375 C 142.285156 102.257812 146.078125 105.859375 147.585938 107.527344 L 150.933594 111.230469 C 152.652344 113.132812 156.320312 116.125 158.46875 117.382812 L 170.992188 124.695312 C 171.632812 125.070312 172.726562 125.960938 173.238281 126.527344 L 173.734375 127.078125 C 174.03125 127.40625 174.304688 127.941406 174.40625 128.386719 L 175.054688 131.269531 C 175.167969 131.753906 175.515625 132.152344 175.980469 132.324219 C 176.140625 132.382812 176.320312 132.351562 176.453125 132.25 C 176.589844 132.144531 176.660156 131.976562 176.640625 131.804688 L 176.480469 130.390625 C 176.339844 129.15625 175.761719 127.351562 175.164062 126.296875 L 174.449219 125.03125 C 174.09375 124.402344 173.242188 123.253906 172.753906 122.746094 L 166.566406 116.300781 C 165.925781 115.632812 164.746094 114.085938 164.257812 113.28125 L 163.757812 112.453125 C 163.523438 112.058594 162.929688 111.257812 162.625 110.921875 L 158.570312 106.433594 C 157.320312 105.050781 154.914062 103.269531 153.285156 102.515625 L 151.789062 101.828125 C 151.109375 101.511719 149.53125 100.636719 148.898438 100.222656 L 140.464844 94.695312 C 138.660156 93.507812 135.316406 90.636719 133.832031 88.992188 L 131.375 86.273438 C 131.253906 86.140625 131.207031 85.957031 131.25 85.785156 C 131.292969 85.609375 131.417969 85.46875 131.585938 85.40625 C 132.050781 85.234375 132.570312 85.320312 132.953125 85.632812 L 136.074219 88.167969 C 137.820312 89.582031 142.035156 92.429688 143.964844 93.496094 L 146.878906 95.109375 C 148.171875 95.824219 151.496094 97.417969 152.847656 97.972656 L 158.054688 100.105469 C 160.441406 101.085938 166.203125 102.917969 168.695312 103.492188 L 171.964844 104.246094 C 173.597656 104.625 176.898438 104.898438 178.566406 104.796875 L 182.3125 104.566406 C 183.320312 104.503906 185.03125 104.058594 185.957031 103.621094 L 186.828125 103.207031 C 187.300781 102.984375 188.011719 102.453125 188.375 102.050781 L 189.535156 100.765625 C 190.140625 100.097656 191.046875 98.703125 191.429688 97.855469 L 191.808594 97.011719 C 192.027344 96.535156 192.191406 95.761719 192.191406 95.226562 L 192.191406 88.554688 C 192.191406 87.535156 192.933594 86.667969 193.9375 86.511719 L 195.683594 86.234375 C 197.464844 85.953125 200.742188 84.882812 202.378906 84.046875 L 204.019531 83.207031 C 204.851562 82.78125 206.328125 81.722656 207.019531 81.054688 L 211.453125 76.761719 C 212.585938 75.664062 214.363281 73.3125 215.136719 71.882812 L 215.886719 70.503906 C 216.246094 69.835938 216.871094 68.335938 217.09375 67.597656 L 217.859375 65.046875 C 218.261719 63.71875 218.628906 61.214844 218.628906 59.8125 L 218.628906 54.796875 C 218.628906 52.941406 218.074219 50.113281 217.382812 48.425781 L 216.757812 46.90625 C 216.425781 46.097656 215.636719 44.839844 215.070312 44.210938 L 213.855469 42.867188 C 213.246094 42.195312 211.898438 41.054688 211.152344 40.585938 L 210.152344 39.949219 C 209.667969 39.644531 208.582031 39.125 208.050781 38.941406 L 205.359375 38.027344 C 203.578125 37.421875 201.703125 37.144531 199.824219 37.207031 L 193.175781 37.4375 C 189.988281 37.546875 183.542969 38.640625 180.46875 39.59375 L 177.351562 40.558594 C 175.945312 40.996094 172.601562 42.300781 171.257812 42.9375 L 167.507812 44.714844 C 165.863281 45.496094 161.757812 47.714844 160.1875 48.675781 L 154.742188 52 C 152.320312 53.476562 146.472656 57.535156 144.21875 59.304688 L 137.949219 64.214844 C 137.5625 64.523438 137.039062 64.605469 136.574219 64.433594 C 136.414062 64.371094 136.292969 64.234375 136.257812 64.066406 C 136.21875 63.894531 136.273438 63.71875 136.398438 63.597656 L 141.648438 58.472656 C 142.878906 57.269531 145.511719 54.246094 146.550781 52.839844 L 147.671875 51.324219 C 148.25 50.539062 149.113281 48.921875 149.453125 47.984375 L 150.121094 46.136719 C 150.433594 45.277344 151 43.242188 151.179688 42.339844 L 151.984375 38.347656 C 152.40625 36.242188 153.707031 32.703125 154.734375 30.871094 L 158.527344 24.085938 C 158.890625 23.4375 159.78125 22.195312 160.269531 21.65625 L 160.765625 21.105469 C 161.078125 20.757812 161.527344 20.519531 161.96875 20.464844 L 165.207031 20.066406 C 165.519531 20.027344 165.753906 19.761719 165.753906 19.449219 C 165.753906 19.117188 165.546875 18.820312 165.238281 18.703125 L 165.007812 18.621094 C 164.523438 18.441406 163.992188 18.433594 163.5 18.59375 L 161.765625 19.171875 C 160.339844 19.644531 158.460938 20.855469 157.390625 21.992188 L 150.25 29.546875 C 149.097656 30.765625 146.738281 33.753906 145.804688 35.179688 L 144.804688 36.695312 C 144.28125 37.496094 143.578125 39.066406 143.320312 40.011719 L 141.726562 45.890625 C 141.199219 47.832031 139.867188 50.300781 138.570312 51.738281 L 136.859375 53.628906 C 136.539062 53.988281 136.027344 54.113281 135.578125 53.945312 C 135.152344 53.789062 134.914062 53.335938 135.027344 52.898438 L 135.328125 51.738281 C 135.582031 50.757812 135.828125 48.8125 135.828125 47.796875 L 135.828125 45.488281 C 135.828125 44.347656 135.570312 42.050781 135.320312 40.945312 L 134.824219 38.75 C 134.585938 37.6875 133.859375 35.515625 133.417969 34.535156 L 132.875 33.339844 C 132.601562 32.734375 131.933594 31.652344 131.523438 31.152344 L 129.433594 28.613281 C 128.367188 27.3125 126.046875 25.207031 124.6875 24.304688 L 121.195312 21.988281 C 120.410156 21.464844 120.070312 20.480469 120.363281 19.585938 L 120.863281 18.066406 C 121.386719 16.46875 122.734375 13.847656 123.707031 12.53125 L 125.027344 10.746094 C 125.714844 9.816406 127.195312 8.367188 128.109375 7.722656 L 129.972656 6.410156 C 130.90625 5.753906 132.890625 4.734375 133.945312 4.367188 L 139.246094 2.535156 C 139.609375 2.410156 139.90625 2.136719 140.066406 1.785156 C 140.21875 1.449219 140.15625 1.058594 139.910156 0.785156 L 139.816406 0.679688 C 139.511719 0.34375 139.042969 0.21875 138.609375 0.355469 L 135.828125 1.234375 C 134.105469 1.777344 130.734375 3.347656 129.183594 4.332031 L 127.265625 5.542969 C 126.269531 6.171875 124.644531 7.625 123.875 8.566406 L 122.371094 10.417969 C 121.566406 11.40625 120.472656 13.355469 120.027344 14.585938 L 118.890625 17.730469 C 118.300781 19.359375 116.621094 20.320312 114.917969 20.007812 L 114.835938 19.992188 C 112.878906 19.632812 110.878906 19.558594 108.902344 19.777344 L 102.277344 20.511719 C 102.046875 20.535156 101.816406 20.449219 101.660156 20.277344 L 101.410156 20 C 101.125 19.6875 100.8125 19.128906 100.6875 18.707031 L 99.800781 15.765625 C 99.3125 14.140625 98.074219 11.800781 97.03125 10.53125 L 95.480469 8.640625 C 94.675781 7.660156 92.964844 6.144531 91.925781 5.488281 L 89.433594 3.910156 C 88.207031 3.136719 85.542969 1.894531 84.1875 1.464844 L 81.039062 0.46875 C 80.761719 0.382812 80.460938 0.414062 80.207031 0.558594 C 79.957031 0.707031 79.773438 0.949219 79.710938 1.234375 Z M 79.710938 1.234375 " clip-rule="nonzero"/></clipPath><clipPath id="4e9a52c19c"><rect x="0" width="219" y="0" height="178"/></clipPath></defs><g fill="#fdbc48" fill-opacity="1"><g transform="translate(551.599313, 818.624909)"><g><path d="M 84.53125 -122.953125 L 84.53125 -88.46875 C 84.53125 -84.96875 83.40625 -82.03125 81.15625 -79.65625 C 78.90625 -77.28125 76.09375 -75.78125 72.71875 -75.15625 L 72.71875 -74.78125 C 76.09375 -74.28125 78.90625 -72.8125 81.15625 -70.375 C 83.40625 -67.9375 84.53125 -64.96875 84.53125 -61.46875 L 84.53125 -26.984375 C 84.53125 -18.242188 82.21875 -11.5625 77.59375 -6.9375 C 72.96875 -2.3125 66.21875 0 57.34375 0 L 12.375 0 C 10.375 0 9.375 -1 9.375 -3 L 9.375 -146.9375 C 9.375 -148.9375 10.375 -149.9375 12.375 -149.9375 L 57.34375 -149.9375 C 66.21875 -149.9375 72.96875 -147.65625 77.59375 -143.09375 C 82.21875 -138.53125 84.53125 -131.816406 84.53125 -122.953125 Z M 59.59375 -94.640625 L 59.59375 -117.703125 C 59.59375 -122.703125 57.097656 -125.203125 52.109375 -125.203125 L 35.046875 -125.203125 L 35.046875 -87.34375 L 52.109375 -87.34375 C 57.097656 -87.34375 59.59375 -89.773438 59.59375 -94.640625 Z M 59.59375 -32.234375 L 59.59375 -55.109375 C 59.59375 -60.097656 57.097656 -62.59375 52.109375 -62.59375 L 35.046875 -62.59375 L 35.046875 -24.734375 L 52.109375 -24.734375 C 57.097656 -24.734375 59.59375 -27.234375 59.59375 -32.234375 Z M 59.59375 -32.234375 "/></g></g></g><g fill="#fdbc48" fill-opacity="1"><g transform="translate(645.495686, 818.624909)"><g><path d="M 84.15625 -128.203125 L 84.15625 -109.453125 C 84.15625 -107.328125 83.15625 -106.265625 81.15625 -106.265625 L 34.859375 -106.265625 L 34.859375 -77.40625 L 70.09375 -77.40625 C 72.09375 -77.40625 73.09375 -76.34375 73.09375 -74.21875 L 73.09375 -55.671875 C 73.09375 -53.546875 72.09375 -52.484375 70.09375 -52.484375 L 34.859375 -52.484375 L 34.859375 -24.734375 L 81.15625 -24.734375 C 83.15625 -24.734375 84.15625 -23.734375 84.15625 -21.734375 L 84.15625 -3 C 84.15625 -1 83.15625 0 81.15625 0 L 12.1875 0 C 10.3125 0 9.375 -1 9.375 -3 L 9.375 -128.203125 C 9.375 -130.191406 10.3125 -131.1875 12.1875 -131.1875 L 81.15625 -131.1875 C 83.15625 -131.1875 84.15625 -130.191406 84.15625 -128.203125 Z M 84.15625 -128.203125 "/></g></g></g><g fill="#fdbc48" fill-opacity="1"><g transform="translate(739.017219, 818.624909)"><g><path d="M 84.15625 -128.203125 L 84.15625 -109.453125 C 84.15625 -107.328125 83.15625 -106.265625 81.15625 -106.265625 L 34.859375 -106.265625 L 34.859375 -77.40625 L 70.09375 -77.40625 C 72.09375 -77.40625 73.09375 -76.34375 73.09375 -74.21875 L 73.09375 -55.671875 C 73.09375 -53.546875 72.09375 -52.484375 70.09375 -52.484375 L 34.859375 -52.484375 L 34.859375 -24.734375 L 81.15625 -24.734375 C 83.15625 -24.734375 84.15625 -23.734375 84.15625 -21.734375 L 84.15625 -3 C 84.15625 -1 83.15625 0 81.15625 0 L 12.1875 0 C 10.3125 0 9.375 -1 9.375 -3 L 9.375 -128.203125 C 9.375 -130.191406 10.3125 -131.1875 12.1875 -131.1875 L 81.15625 -131.1875 C 83.15625 -131.1875 84.15625 -130.191406 84.15625 -128.203125 Z M 84.15625 -128.203125 "/></g></g></g><g fill="#fdbc48" fill-opacity="1"><g transform="translate(832.538742, 818.624909)"><g><path d="M 84.53125 -122.953125 L 84.53125 -88.46875 C 84.53125 -84.96875 83.40625 -82.03125 81.15625 -79.65625 C 78.90625 -77.28125 76.09375 -75.78125 72.71875 -75.15625 L 72.71875 -74.78125 C 76.09375 -74.28125 78.90625 -72.8125 81.15625 -70.375 C 83.40625 -67.9375 84.53125 -64.96875 84.53125 -61.46875 L 84.53125 -26.984375 C 84.53125 -18.242188 82.21875 -11.5625 77.59375 -6.9375 C 72.96875 -2.3125 66.21875 0 57.34375 0 L 12.375 0 C 10.375 0 9.375 -1 9.375 -3 L 9.375 -146.9375 C 9.375 -148.9375 10.375 -149.9375 12.375 -149.9375 L 57.34375 -149.9375 C 66.21875 -149.9375 72.96875 -147.65625 77.59375 -143.09375 C 82.21875 -138.53125 84.53125 -131.816406 84.53125 -122.953125 Z M 59.59375 -94.640625 L 59.59375 -117.703125 C 59.59375 -122.703125 57.097656 -125.203125 52.109375 -125.203125 L 35.046875 -125.203125 L 35.046875 -87.34375 L 52.109375 -87.34375 C 57.097656 -87.34375 59.59375 -89.773438 59.59375 -94.640625 Z M 59.59375 -32.234375 L 59.59375 -55.109375 C 59.59375 -60.097656 57.097656 -62.59375 52.109375 -62.59375 L 35.046875 -62.59375 L 35.046875 -24.734375 L 52.109375 -24.734375 C 57.097656 -24.734375 59.59375 -27.234375 59.59375 -32.234375 Z M 59.59375 -32.234375 "/></g></g></g><g fill="#fdbc48" fill-opacity="1"><g transform="translate(926.435126, 818.624909)"><g><path d="M 63.34375 -131.1875 L 80.59375 -131.1875 C 81.59375 -131.1875 82.46875 -130.8125 83.21875 -130.0625 C 83.96875 -129.320312 84.34375 -128.453125 84.34375 -127.453125 L 84.34375 -26.984375 C 84.34375 -18.242188 82.0625 -11.5625 77.5 -6.9375 C 72.9375 -2.3125 66.21875 0 57.34375 0 L 36.359375 0 C 27.609375 0 20.921875 -2.3125 16.296875 -6.9375 C 11.679688 -11.5625 9.375 -18.242188 9.375 -26.984375 L 9.375 -127.453125 C 9.375 -128.453125 9.75 -129.320312 10.5 -130.0625 C 11.25 -130.8125 12.125 -131.1875 13.125 -131.1875 L 31.109375 -131.1875 C 32.109375 -131.1875 32.984375 -130.8125 33.734375 -130.0625 C 34.484375 -129.320312 34.859375 -128.453125 34.859375 -127.453125 L 34.859375 -32.234375 C 34.859375 -27.234375 37.359375 -24.734375 42.359375 -24.734375 L 52.109375 -24.734375 C 57.097656 -24.734375 59.59375 -27.234375 59.59375 -32.234375 L 59.59375 -127.453125 C 59.59375 -128.453125 59.96875 -129.320312 60.71875 -130.0625 C 61.46875 -130.8125 62.34375 -131.1875 63.34375 -131.1875 Z M 63.34375 -131.1875 "/></g></g></g><g fill="#fdbc48" fill-opacity="1"><g transform="translate(1020.144103, 818.624909)"><g><path d="M 9.375 -3 L 9.375 -128.203125 C 9.375 -130.191406 10.375 -131.1875 12.375 -131.1875 L 57.34375 -131.1875 C 66.21875 -131.1875 72.9375 -128.875 77.5 -124.25 C 82.0625 -119.632812 84.34375 -112.890625 84.34375 -104.015625 L 84.34375 -26.984375 C 84.34375 -18.242188 82.0625 -11.5625 77.5 -6.9375 C 72.9375 -2.3125 66.21875 0 57.34375 0 L 12.375 0 C 10.375 0 9.375 -1 9.375 -3 Z M 34.859375 -24.734375 L 52.109375 -24.734375 C 57.097656 -24.734375 59.59375 -27.234375 59.59375 -32.234375 L 59.59375 -98.765625 C 59.59375 -103.890625 57.097656 -106.453125 52.109375 -106.453125 L 34.859375 -106.453125 Z M 34.859375 -24.734375 "/></g></g></g><g fill="#fdbc48" fill-opacity="1"><g transform="translate(1113.853033, 818.624909)"><g><path d="M 9.375 -3 L 9.375 -128.203125 C 9.375 -130.191406 10.375 -131.1875 12.375 -131.1875 L 57.34375 -131.1875 C 66.21875 -131.1875 72.9375 -128.875 77.5 -124.25 C 82.0625 -119.632812 84.34375 -112.890625 84.34375 -104.015625 L 84.34375 -26.984375 C 84.34375 -18.242188 82.0625 -11.5625 77.5 -6.9375 C 72.9375 -2.3125 66.21875 0 57.34375 0 L 12.375 0 C 10.375 0 9.375 -1 9.375 -3 Z M 34.859375 -24.734375 L 52.109375 -24.734375 C 57.097656 -24.734375 59.59375 -27.234375 59.59375 -32.234375 L 59.59375 -98.765625 C 59.59375 -103.890625 57.097656 -106.453125 52.109375 -106.453125 L 34.859375 -106.453125 Z M 34.859375 -24.734375 "/></g></g></g><g fill="#fdbc48" fill-opacity="1"><g transform="translate(1207.561963, 818.624909)"><g><path d="M 74.59375 -131.1875 L 93.34375 -131.1875 C 94.707031 -131.1875 95.703125 -130.78125 96.328125 -129.96875 C 96.953125 -129.164062 96.953125 -128.140625 96.328125 -126.890625 L 62.03125 -49.109375 L 62.03125 -3.75 C 62.03125 -1.25 60.78125 0 58.28125 0 L 40.296875 0 C 37.796875 0 36.546875 -1.25 36.546875 -3.75 L 36.546875 -49.109375 L 2.25 -126.890625 C 1.75 -128.140625 1.78125 -129.164062 2.34375 -129.96875 C 2.90625 -130.78125 3.875 -131.1875 5.25 -131.1875 L 23.984375 -131.1875 C 26.109375 -131.1875 27.546875 -130.191406 28.296875 -128.203125 L 49.296875 -80.03125 L 70.28125 -128.203125 C 71.03125 -130.191406 72.46875 -131.1875 74.59375 -131.1875 Z M 74.59375 -131.1875 "/></g></g></g><g clip-path="url(#56129993bf)"><g clip-path="url(#9ce966618d)"><g transform="matrix(1, 0, 0, 1, 290, 633)"><g clip-path="url(#896d295b19)"><g clip-path="url(#da6c2eee54)"><g clip-path="url(#16836865ea)"><path fill="#fdbc48" d="M 0.445312 0.960938 L 255.476562 0.960938 L 255.476562 232.476562 L 0.445312 232.476562 Z M 0.445312 0.960938 " fill-opacity="1" fill-rule="nonzero"/></g></g></g></g></g></g><g clip-path="url(#dc7416d375)"><g clip-path="url(#6d7d656354)"><g transform="matrix(1, 0, 0, 1, 306, 652)"><g clip-path="url(#90da4646ad)"><g clip-path="url(#f729fe7736)"><g clip-path="url(#51b6ecac47)"><path fill="#ffffff" d="M 0.078125 0.164062 L 224.316406 0.164062 L 224.316406 193.445312 L 0.078125 193.445312 Z M 0.078125 0.164062 " fill-opacity="1" fill-rule="nonzero"/></g></g></g></g></g></g><path stroke-linecap="butt" transform="matrix(0.000000001309, -0.75, 0.75, 0.000000001309, 423.008877, 1007.442661)" fill="none" stroke-linejoin="miter" d="M 33.751676 4.498581 L 189.293356 4.498581 " stroke="#fdbc48" stroke-width="9" stroke-opacity="1" stroke-miterlimit="4"/><path stroke-linecap="round" transform="matrix(0.000000001309, -0.75, 0.75, 0.000000001309, 423.008877, 1007.442661)" fill-opacity="1" fill="#fdbc48" fill-rule="nonzero" stroke-linejoin="round" d="M 4.501674 4.498581 C 4.501674 -2.954544 10.543341 -9.00142 18.001675 -9.00142 C 25.4548 -9.00142 31.501676 -2.954545 31.501676 4.498581 C 31.501676 11.956915 25.454801 17.998582 18.001675 17.998582 C 10.543341 17.998582 4.501674 11.956915 4.501674 4.498581 " stroke="#fdbc48" stroke-width="9" stroke-opacity="1" stroke-miterlimit="4"/><path stroke-linecap="butt" transform="matrix(0.749831, 0.0159346, -0.0159346, 0.749831, 544.67941, 831.606532)" fill="none" stroke-linejoin="miter" d="M 0.00180055 3.499334 L 145.143947 3.498955 " stroke="#fdbc48" stroke-width="7" stroke-opacity="1" stroke-miterlimit="4"/><path stroke-linecap="round" transform="matrix(0.749831, 0.0159346, -0.0159346, 0.749831, 544.67941, 831.606532)" fill="none" stroke-linejoin="round" d="M 167.893899 3.499981 C 167.897295 9.298093 163.194006 13.99804 157.395893 14.001436 C 151.59767 13.999626 146.892517 9.296447 146.894327 3.498224 C 146.896138 -2.299999 151.59422 -6.999835 157.39765 -6.998135 C 163.195763 -7.001532 167.895709 -2.298242 167.893899 3.499981 " stroke="#fdbc48" stroke-width="7" stroke-opacity="1" stroke-miterlimit="4"/><path stroke-linecap="butt" transform="matrix(0.477004, 0.578764, -0.578764, 0.477004, 537.229259, 846.359787)" fill="none" stroke-linejoin="miter" d="M 0.00170204 4.501097 L 123.016285 4.498908 " stroke="#fdbc48" stroke-width="9" stroke-opacity="1" stroke-miterlimit="4"/><path stroke-linecap="butt" transform="matrix(0.194114, -0.724444, 0.724444, 0.194114, 571.029248, 980.524816)" fill="none" stroke-linejoin="miter" d="M 33.748599 4.499326 L 87.993343 4.501495 " stroke="#fdbc48" stroke-width="9" stroke-opacity="1" stroke-miterlimit="4"/><path stroke-linecap="round" transform="matrix(0.194114, -0.724444, 0.724444, 0.194114, 571.029248, 980.524816)" fill-opacity="1" fill="#fdbc48" fill-rule="nonzero" stroke-linejoin="round" d="M 4.502524 4.501119 C 4.499638 -2.955332 10.541775 -9.001202 17.999574 -8.999058 C 25.456025 -9.001944 31.498212 -2.953428 31.499751 4.497992 C 31.497606 11.955791 25.455469 18.001661 17.99767 17.999517 C 10.54625 18.001055 4.499032 11.953887 4.502524 4.501119 " stroke="#fdbc48" stroke-width="9" stroke-opacity="1" stroke-miterlimit="4"/><path stroke-linecap="butt" transform="matrix(-0.391365, 0.639792, -0.639792, -0.391365, 314.41984, 858.865154)" fill="none" stroke-linejoin="miter" d="M 0.00285079 4.500937 L 123.017424 4.502392 " stroke="#fdbc48" stroke-width="9" stroke-opacity="1" stroke-miterlimit="4"/><path stroke-linecap="butt" transform="matrix(0.748126, -0.0529834, 0.0529834, 0.748126, 200.262599, 935.359291)" fill="none" stroke-linejoin="miter" d="M 33.749643 4.499749 L 87.994639 4.498526 " stroke="#fdbc48" stroke-width="9" stroke-opacity="1" stroke-miterlimit="4"/><path stroke-linecap="round" transform="matrix(0.748126, -0.0529834, 0.0529834, 0.748126, 200.262599, 935.359291)" fill-opacity="1" fill="#fdbc48" fill-rule="nonzero" stroke-linejoin="round" d="M 4.499382 4.501089 C 4.500074 -2.954991 10.546485 -9.001285 18.002566 -9.000594 C 25.453451 -9.00027 31.499745 -2.953859 31.499054 4.502222 C 31.498362 11.958302 25.457514 17.999769 18.001433 17.999078 C 10.545353 17.998386 4.498691 11.95717 4.499382 4.501089 " stroke="#fdbc48" stroke-width="9" stroke-opacity="1" stroke-miterlimit="4"/><path stroke-linecap="butt" transform="matrix(-0.616004, -0.427831, 0.427831, -0.616004, 299.36034, 650.810732)" fill="none" stroke-linejoin="miter" d="M 0.000198687 4.499297 L 123.014261 4.498803 " stroke="#fdbc48" stroke-width="9" stroke-opacity="1" stroke-miterlimit="4"/><path stroke-linecap="butt" transform="matrix(0.00948254, 0.74994, -0.74994, 0.00948254, 230.003685, 531.586806)" fill="none" stroke-linejoin="miter" d="M 33.751944 4.499721 L 87.995891 4.498048 " stroke="#fdbc48" stroke-width="9" stroke-opacity="1" stroke-miterlimit="4"/><path stroke-linecap="round" transform="matrix(0.00948254, 0.74994, -0.74994, 0.00948254, 230.003685, 531.586806)" fill="none" stroke-linejoin="round" d="M 4.499603 4.499663 C 4.500093 -2.954052 10.545741 -8.99789 17.999523 -9.002608 C 25.458446 -9.002052 31.502284 -2.956403 31.501728 4.50252 C 31.501238 11.956236 25.455589 18.000074 18.001874 17.999584 C 10.54295 17.999028 4.499112 11.953379 4.499603 4.499663 " stroke="#fdbc48" stroke-width="9" stroke-opacity="1" stroke-miterlimit="4"/><path stroke-linecap="butt" transform="matrix(0.538993, -0.521523, 0.521523, 0.538993, 527.165316, 652.27814)" fill="none" stroke-linejoin="miter" d="M 0.0000137163 4.499118 L 123.016451 4.498565 " stroke="#fdbc48" stroke-width="9" stroke-opacity="1" stroke-miterlimit="4"/><path stroke-linecap="butt" transform="matrix(-0.737588, -0.135882, 0.135882, -0.737588, 657.464041, 607.16184)" fill="none" stroke-linejoin="miter" d="M 33.747527 4.498901 L 87.994221 4.498801 " stroke="#fdbc48" stroke-width="9" stroke-opacity="1" stroke-miterlimit="4"/><path stroke-linecap="round" transform="matrix(-0.737588, -0.135882, 0.135882, -0.737588, 657.464041, 607.16184)" fill-opacity="1" fill="#fdbc48" fill-rule="nonzero" stroke-linejoin="round" d="M 4.498285 4.501339 C 4.501414 -2.955975 10.542906 -8.999527 17.999278 -9.001521 C 25.456592 -8.998392 31.500144 -2.956899 31.502138 4.499472 C 31.499009 11.956786 25.457516 18.000338 18.001145 18.002332 C 10.54383 17.999203 4.500279 11.957711 4.498285 4.501339 " stroke="#fdbc48" stroke-width="9" stroke-opacity="1" stroke-miterlimit="4"/><path stroke-linecap="butt" transform="matrix(0.000000001309, -0.75, 0.75, 0.000000001309, 368.564884, 949.474002)" fill="none" stroke-linejoin="miter" d="M 33.751798 4.50203 L 121.059097 4.50203 " stroke="#fdbc48" stroke-width="9" stroke-opacity="1" stroke-miterlimit="4"/><path stroke-linecap="round" transform="matrix(0.000000001309, -0.75, 0.75, 0.000000001309, 368.564884, 949.474002)" fill-opacity="1" fill="#fdbc48" fill-rule="nonzero" stroke-linejoin="round" d="M 4.501795 4.50203 C 4.501795 -2.956304 10.543462 -8.997971 18.001796 -8.997971 C 25.454922 -8.997971 31.501797 -2.956304 31.501797 4.50203 C 31.501797 11.955156 25.454922 18.002031 18.001796 18.002031 C 10.543462 18.002031 4.501795 11.955156 4.501795 4.50203 " stroke="#fdbc48" stroke-width="9" stroke-opacity="1" stroke-miterlimit="4"/><path stroke-linecap="butt" transform="matrix(0, 0.75, -0.75, 0, 482.773984, 865.478041)" fill="none" stroke-linejoin="miter" d="M -0.00197194 3.500729 L 101.61262 3.500729 " stroke="#fdbc48" stroke-width="7" stroke-opacity="1" stroke-miterlimit="4"/><path stroke-linecap="round" transform="matrix(0, 0.75, -0.75, 0, 482.773984, 865.478041)" fill="none" stroke-linejoin="round" d="M 124.362622 3.500729 C 124.362622 9.297604 119.659497 14.00073 113.862621 14.00073 C 108.065746 14.00073 103.36262 9.297604 103.36262 3.500729 C 103.36262 -2.301355 108.065746 -6.999272 113.862621 -6.999272 C 119.659497 -6.999272 124.362622 -2.301355 124.362622 3.500729 " stroke="#fdbc48" stroke-width="7" stroke-opacity="1" stroke-miterlimit="4"/><path stroke-linecap="butt" transform="matrix(0.75, 0.000000000000000901, -0.000000000000000901, 0.75, 150.00002, 750.593051)" fill="none" stroke-linejoin="miter" d="M 33.749976 4.500932 L 189.291656 4.500932 " stroke="#fdbc48" stroke-width="9" stroke-opacity="1" stroke-miterlimit="4"/><path stroke-linecap="round" transform="matrix(0.75, 0.000000000000000901, -0.000000000000000901, 0.75, 150.00002, 750.593051)" fill-opacity="1" fill="#fdbc48" fill-rule="nonzero" stroke-linejoin="round" d="M 4.499973 4.500932 C 4.499973 -2.957402 10.54164 -8.999069 17.999974 -8.999069 C 25.458308 -8.999069 31.499975 -2.957402 31.499975 4.500932 C 31.499975 11.954058 25.458308 18.000933 17.999974 18.000933 C 10.54164 18.000933 4.499973 11.954058 4.499973 4.500932 " stroke="#fdbc48" stroke-width="9" stroke-opacity="1" stroke-miterlimit="4"/><path stroke-linecap="butt" transform="matrix(0.75, 0.000000000000001409, -0.000000000000001409, 0.75, 212.748267, 696.148984)" fill="none" stroke-linejoin="miter" d="M 33.752314 4.499272 L 121.059613 4.499272 " stroke="#fdbc48" stroke-width="9" stroke-opacity="1" stroke-miterlimit="4"/><path stroke-linecap="round" transform="matrix(0.75, 0.000000000000001409, -0.000000000000001409, 0.75, 212.748267, 696.148984)" fill-opacity="1" fill="#fdbc48" fill-rule="nonzero" stroke-linejoin="round" d="M 4.502311 4.499272 C 4.502311 -2.953854 10.543978 -9.000729 18.002312 -9.000729 C 25.455438 -9.000729 31.502313 -2.953854 31.502313 4.499272 C 31.502313 11.957606 25.455438 17.999273 18.002312 17.999273 C 10.543978 17.999273 4.502311 11.957606 4.502311 4.499272 " stroke="#fdbc48" stroke-width="9" stroke-opacity="1" stroke-miterlimit="4"/><path stroke-linecap="butt" transform="matrix(-0.75, 0, 0, -0.75, 291.968415, 810.35451)" fill="none" stroke-linejoin="miter" d="M -0.000446131 3.498722 L 101.614146 3.498722 " stroke="#fdbc48" stroke-width="7" stroke-opacity="1" stroke-miterlimit="4"/><path stroke-linecap="round" transform="matrix(-0.75, 0, 0, -0.75, 291.968415, 810.35451)" fill="none" stroke-linejoin="round" d="M 124.364148 3.498722 C 124.364148 9.300806 119.661023 13.998723 113.864147 13.998723 C 108.062063 13.998723 103.364146 9.300806 103.364146 3.498722 C 103.364146 -2.298153 108.062063 -7.001279 113.864147 -7.001279 C 119.661023 -7.001279 124.364148 -2.298153 124.364148 3.498722 " stroke="#fdbc48" stroke-width="7" stroke-opacity="1" stroke-miterlimit="4"/><path stroke-linecap="butt" transform="matrix(0, 0.75, -0.75, 0, 429.042524, 492.557098)" fill="none" stroke-linejoin="miter" d="M 33.751998 4.499408 L 189.293678 4.499408 " stroke="#fdbc48" stroke-width="9" stroke-opacity="1" stroke-miterlimit="4"/><path stroke-linecap="round" transform="matrix(0, 0.75, -0.75, 0, 429.042524, 492.557098)" fill="none" stroke-linejoin="round" d="M 4.501995 4.499408 C 4.501995 -2.953718 10.543662 -9.000593 18.001996 -9.000593 C 25.455122 -9.000593 31.501998 -2.953718 31.501998 4.499408 C 31.501998 11.957742 25.455122 17.999409 18.001996 17.999409 C 10.543662 17.999409 4.501995 11.957742 4.501995 4.499408 " stroke="#fdbc48" stroke-width="9" stroke-opacity="1" stroke-miterlimit="4"/><path stroke-linecap="butt" transform="matrix(0, 0.75, -0.75, 0, 483.486784, 548.477501)" fill="none" stroke-linejoin="miter" d="M 33.748752 4.498004 L 121.061259 4.498004 " stroke="#fdbc48" stroke-width="9" stroke-opacity="1" stroke-miterlimit="4"/><path stroke-linecap="round" transform="matrix(0, 0.75, -0.75, 0, 483.486784, 548.477501)" fill-opacity="1" fill="#fdbc48" fill-rule="nonzero" stroke-linejoin="round" d="M 4.498749 4.498004 C 4.498749 -2.955122 10.545625 -9.001998 17.998751 -9.001998 C 25.457085 -9.001998 31.498752 -2.955122 31.498752 4.498004 C 31.498752 11.956338 25.457085 17.998005 17.998751 17.998005 C 10.545625 17.998005 4.498749 11.956338 4.498749 4.498004 " stroke="#fdbc48" stroke-width="9" stroke-opacity="1" stroke-miterlimit="4"/><path stroke-linecap="butt" transform="matrix(0, -0.75, 0.75, 0, 369.284884, 634.521789)" fill="none" stroke-linejoin="miter" d="M -0.00219754 3.500363 L 101.612395 3.500363 " stroke="#fdbc48" stroke-width="7" stroke-opacity="1" stroke-miterlimit="4"/><path stroke-linecap="round" transform="matrix(0, -0.75, 0.75, 0, 369.284884, 634.521789)" fill="none" stroke-linejoin="round" d="M 124.362397 3.500363 C 124.362397 9.297239 119.659271 14.000364 113.862396 14.000364 C 108.06552 14.000364 103.362395 9.297239 103.362395 3.500363 C 103.362395 -2.296512 108.06552 -6.999638 113.862396 -6.999638 C 119.659271 -6.999638 124.362397 -2.296512 124.362397 3.500363 " stroke="#fdbc48" stroke-width="7" stroke-opacity="1" stroke-miterlimit="4"/><g clip-path="url(#1c2426d34b)"><g clip-path="url(#db642f9459)"><g transform="matrix(1, 0, 0, 1, 307, 661)"><g clip-path="url(#4e9a52c19c)"><g clip-path="url(#14e2255202)"><g clip-path="url(#3f5961a1d9)"><path fill="#1a2628" d="M 0.652344 0.128906 L 218.621094 0.128906 L 218.621094 177.273438 L 0.652344 177.273438 Z M 0.652344 0.128906 " fill-opacity="1" fill-rule="nonzero"/></g></g></g></g></g></g></svg>